<svg height="512pt" viewBox="0 -17 512 512" width="512pt" xmlns="http://www.w3.org/2000/svg"><path d="m488.183594 478.914062h-464.367188c-13.152344 0-23.816406-10.660156-23.816406-23.816406v-429.117187c0-14.347657 11.632812-25.980469 25.980469-25.980469h460.125c14.300781 0 25.894531 11.59375 25.894531 25.894531v429.203125c0 13.15625-10.664062 23.816406-23.816406 23.816406zm0 0" fill="#f4f4f4"/><path d="m486.105469 0h-11.824219c.789062 2.511719 1.21875 5.179688 1.21875 7.949219v463.019531c0 2.769531-.429688 5.4375-1.21875 7.945312h13.902344c13.152344 0 23.816406-10.660156 23.816406-23.816406v-429.203125c0-14.300781-11.59375-25.894531-25.894531-25.894531zm0 0" fill="#e8e8e8"/><path d="m0 92.164062h512v-67.628906c0-13.550781-10.984375-24.535156-24.535156-24.535156h-462.929688c-13.550781 0-24.535156 10.984375-24.535156 24.535156zm0 0" fill="#fba826"/><path d="m487.464844 0h-13.183594c.789062 2.511719 1.21875 5.179688 1.21875 7.949219v84.214843h36.5v-67.628906c0-13.550781-10.984375-24.535156-24.535156-24.535156zm0 0" fill="#e09721"/><path d="m79.640625 46.082031c0 10.046875-8.140625 18.1875-18.1875 18.1875-10.042969 0-18.183594-8.140625-18.183594-18.1875 0-10.042969 8.140625-18.1875 18.183594-18.1875 10.046875 0 18.1875 8.144531 18.1875 18.1875zm0 0" fill="#fa5d72"/><path d="m141.207031 46.082031c0 10.046875-8.144531 18.1875-18.1875 18.1875-10.046875 0-18.1875-8.140625-18.1875-18.1875 0-10.042969 8.140625-18.1875 18.1875-18.1875 10.042969 0 18.1875 8.144531 18.1875 18.1875zm0 0" fill="#4c7eb0"/><path d="m202.769531 46.082031c0 10.046875-8.144531 18.1875-18.1875 18.1875s-18.1875-8.140625-18.1875-18.1875c0-10.042969 8.144531-18.1875 18.1875-18.1875s18.1875 8.144531 18.1875 18.1875zm0 0" fill="#279463"/><path d="m270.078125 53.808594h188.179687c4.269532 0 7.726563-3.457032 7.726563-7.722656 0-4.269532-3.460937-7.726563-7.726563-7.726563h-188.179687c-4.265625 0-7.726563 3.457031-7.726563 7.726563 0 4.265624 3.460938 7.722656 7.726563 7.722656zm0 0" fill="#495663"/><path d="m91.402344 118.410156c-4.265625 0-7.726563 3.460938-7.726563 7.726563v315.234375c0 4.269531 3.460938 7.726562 7.726563 7.726562 4.269531 0 7.726562-3.457031 7.726562-7.726562v-315.234375c0-4.265625-3.457031-7.726563-7.726562-7.726563zm0 0" fill="#495663"/><path d="m151.65625 177.25c3.015625-3.015625 3.015625-7.90625 0-10.925781l-17.363281-17.359375 17.363281-17.363282c3.015625-3.015624 3.015625-7.910156 0-10.925781-3.019531-3.019531-7.910156-3.019531-10.929688 0-21.636718 22.632813-25.085937 22.726563-25.085937 28.285157 0 5.570312 3.550781 5.761718 25.085937 28.289062 3.019532 3.019531 7.910157 3.019531 10.929688 0zm0 0" fill="#fa5d72"/><path d="m223.332031 179.515625c1.976563 0 3.957031-.757813 5.464844-2.265625 21.640625-22.632812 25.089844-22.726562 25.089844-28.285156 0-5.574219-3.550781-5.765625-25.089844-28.289063-3.019531-3.019531-7.910156-3.019531-10.929687 0-3.015626 3.015625-3.015626 7.910157 0 10.925781l17.363281 17.363282-17.363281 17.359375c-4.882813 4.882812-1.355469 13.191406 5.464843 13.191406zm0 0" fill="#fa5d72"/><path d="m172.128906 179.515625c2.671875 0 5.273438-1.390625 6.703125-3.875l26.269531-45.648437c2.128907-3.699219.855469-8.421876-2.84375-10.550782-3.699218-2.125-8.421874-.855468-10.550781 2.84375l-26.269531 45.648438c-2.988281 5.191406.832031 11.582031 6.691406 11.582031zm0 0" fill="#fa5d72"/><path d="m120.960938 216.234375c0 4.265625 3.460937 7.726563 7.726562 7.726563h30.90625c4.265625 0 7.722656-3.460938 7.722656-7.726563 0-4.269531-3.457031-7.726563-7.722656-7.726563h-30.90625c-4.265625 0-7.726562 3.457032-7.726562 7.726563zm0 0" fill="#2cab72"/><path d="m184.699219 216.234375c0 4.265625 3.460937 7.726563 7.726562 7.726563h189.683594c4.269531 0 7.726563-3.460938 7.726563-7.726563 0-4.269531-3.457032-7.726563-7.726563-7.726563h-189.679687c-4.269532 0-7.730469 3.457032-7.730469 7.726563zm0 0" fill="#4c7eb0"/><path d="m128.6875 268.304688h129.417969c4.269531 0 7.726562-3.460938 7.726562-7.726563 0-4.269531-3.460937-7.726563-7.726562-7.726563h-129.417969c-4.269531 0-7.726562 3.457032-7.726562 7.726563 0 4.265625 3.460937 7.726563 7.726562 7.726563zm0 0" fill="#fba826"/><path d="m382.113281 268.304688c4.265625 0 7.726563-3.460938 7.726563-7.726563 0-4.269531-3.460938-7.726563-7.726563-7.726563h-91.171875c-4.269531 0-7.726562 3.457032-7.726562 7.726563 0 4.265625 3.460937 7.726563 7.726562 7.726563zm0 0" fill="#f6d867"/><path d="m468.132812 252.851562h-53.570312c-4.265625 0-7.726562 3.457032-7.726562 7.722657 0 4.269531 3.460937 7.726562 7.726562 7.726562h53.570312c4.265626 0 7.726563-3.457031 7.726563-7.726562 0-4.265625-3.460937-7.722657-7.726563-7.722657zm0 0" fill="#4c7eb0"/><path d="m128.6875 312.648438h80.484375c4.269531 0 7.726563-3.460938 7.726563-7.726563 0-4.269531-3.460938-7.726563-7.726563-7.726563h-80.484375c-4.269531 0-7.726562 3.457032-7.726562 7.726563 0 4.265625 3.460937 7.726563 7.726562 7.726563zm0 0" fill="#fa5d72"/><path d="m234.28125 304.921875c0 4.265625 3.457031 7.726563 7.726562 7.726563h150.40625c4.265626 0 7.726563-3.460938 7.726563-7.726563 0-4.269531-3.460937-7.726563-7.726563-7.726563h-150.40625c-4.269531 0-7.726562 3.457032-7.726562 7.726563zm0 0" fill="#fba826"/><path d="m468.132812 297.195312h-43.269531c-4.265625 0-7.726562 3.457032-7.726562 7.726563 0 4.265625 3.460937 7.722656 7.726562 7.722656h43.269531c4.265626 0 7.726563-3.457031 7.726563-7.722656 0-4.269531-3.460937-7.726563-7.726563-7.726563zm0 0" fill="#2cab72"/><path d="m128.6875 356.992188h133.539062c4.265626 0 7.726563-3.460938 7.726563-7.726563 0-4.269531-3.460937-7.726563-7.726563-7.726563h-133.539062c-4.269531 0-7.726562 3.457032-7.726562 7.726563 0 4.265625 3.460937 7.726563 7.726562 7.726563zm0 0" fill="#f6d867"/><path d="m382.113281 341.539062h-87.050781c-4.269531 0-7.726562 3.457032-7.726562 7.726563 0 4.265625 3.460937 7.722656 7.726562 7.722656h87.050781c4.265625 0 7.726563-3.457031 7.726563-7.722656 0-4.269531-3.460938-7.726563-7.726563-7.726563zm0 0" fill="#4c7eb0"/><path d="m468.132812 341.539062h-55.371093c-4.269531 0-7.726563 3.457032-7.726563 7.726563 0 4.265625 3.457032 7.722656 7.726563 7.722656h55.371093c4.265626 0 7.726563-3.457031 7.726563-7.722656 0-4.269531-3.460937-7.726563-7.726563-7.726563zm0 0" fill="#fa5d72"/><path d="m305.75 385.882812h-177.0625c-4.269531 0-7.726562 3.460938-7.726562 7.726563s3.460937 7.726563 7.726562 7.726563h177.0625c4.269531 0 7.726562-3.460938 7.726562-7.726563s-3.457031-7.726563-7.726562-7.726563zm0 0" fill="#2cab72"/><path d="m361.507812 385.882812h-22.921874c-4.269532 0-7.726563 3.460938-7.726563 7.726563s3.460937 7.726563 7.726563 7.726563h22.921874c4.269532 0 7.726563-3.460938 7.726563-7.726563s-3.457031-7.726563-7.726563-7.726563zm0 0" fill="#fba826"/><path d="m468.132812 385.882812h-70.566406c-4.269531 0-7.726562 3.460938-7.726562 7.726563s3.457031 7.726563 7.726562 7.726563h70.566406c4.265626 0 7.726563-3.460938 7.726563-7.726563s-3.460937-7.726563-7.726563-7.726563zm0 0" fill="#f6d867"/><g fill="#495663"><path d="m54.855469 141.238281h-19.226563c-4.269531 0-7.726562 3.457031-7.726562 7.726563 0 4.265625 3.457031 7.722656 7.726562 7.722656h19.226563c4.269531 0 7.726562-3.457031 7.726562-7.722656 0-4.269532-3.457031-7.726563-7.726562-7.726563zm0 0"/><path d="m54.855469 208.507812h-19.226563c-4.269531 0-7.726562 3.457032-7.726562 7.722657 0 4.269531 3.457031 7.726562 7.726562 7.726562h19.226563c4.269531 0 7.726562-3.457031 7.726562-7.726562 0-4.265625-3.457031-7.722657-7.726562-7.722657zm0 0"/><path d="m54.855469 252.851562h-19.226563c-4.269531 0-7.726562 3.457032-7.726562 7.722657 0 4.269531 3.457031 7.726562 7.726562 7.726562h19.226563c4.269531 0 7.726562-3.457031 7.726562-7.726562 0-4.265625-3.457031-7.722657-7.726562-7.722657zm0 0"/><path d="m54.855469 297.195312h-19.226563c-4.269531 0-7.726562 3.457032-7.726562 7.726563 0 4.265625 3.457031 7.722656 7.726562 7.722656h19.226563c4.269531 0 7.726562-3.457031 7.726562-7.722656 0-4.269531-3.457031-7.726563-7.726562-7.726563zm0 0"/><path d="m54.855469 341.539062h-19.226563c-4.269531 0-7.726562 3.457032-7.726562 7.726563 0 4.265625 3.457031 7.722656 7.726562 7.722656h19.226563c4.269531 0 7.726562-3.457031 7.726562-7.722656 0-4.269531-3.457031-7.726563-7.726562-7.726563zm0 0"/><path d="m54.855469 385.882812h-19.226563c-4.269531 0-7.726562 3.460938-7.726562 7.726563s3.457031 7.726563 7.726562 7.726563h19.226563c4.269531 0 7.726562-3.460938 7.726562-7.726563s-3.457031-7.726563-7.726562-7.726563zm0 0"/></g></svg>