<svg viewBox="1 1 511.99998 511.99998" xmlns="http://www.w3.org/2000/svg"><path d="m512 256c0 33.832031-6.5625 66.140625-18.496094 95.710938-11.417968 28.308593-27.75 54.117187-47.949218 76.34375-46.820313 51.5625-114.40625 83.945312-189.554688 83.945312-75.136719 0-142.722656-32.371094-189.554688-83.9375-20.199218-22.234375-36.539062-48.054688-47.960937-76.382812-11.921875-29.558594-18.484375-61.855469-18.484375-95.679688 0-141.386719 114.613281-256 256-256s256 114.613281 256 256zm0 0" fill="#ff4f9b"/><path d="m481.179688 89.328125v286.40625h-450.363282v-286.40625c0-27.910156 22.621094-50.542969 50.53125-50.542969h349.300782c27.90625 0 50.53125 22.632813 50.53125 50.542969zm0 0" fill="#ededed"/><path d="m30.8125 326.648438h450.363281v49.085937h-450.363281zm0 0" fill="#d6d6d6"/><path d="m51.707031 291.3125v-206.738281c0-13.746094 11.140625-24.886719 24.886719-24.886719h358.804688c13.742187 0 24.882812 11.140625 24.882812 24.886719v206.738281c0 13.742188-11.140625 24.882812-24.882812 24.882812h-358.804688c-13.746094 0-24.886719-11.140624-24.886719-24.882812zm0 0" fill="#d6d6d6"/><path d="m493.683594 345.976562c0 1.921876-.0625 3.84375-.179688 5.734376-11.417968 28.308593-27.75 54.117187-47.949218 76.34375-13.574219 7.617187-29.234376 11.953124-45.902344 11.953124h-287.304688c-16.675781 0-32.328125-4.335937-45.902344-11.945312-20.199218-22.234375-36.539062-48.054688-47.960937-76.382812-.125-1.878907-.179687-3.792969-.179687-5.703126zm0 0" fill="#ededed"/><g fill="#d6d6d6"><path d="m493.6875 345.976562c0 1.921876-.0625 3.84375-.179688 5.734376v.011718c-11.421874 28.304688-27.75 54.105469-47.949218 76.328125l-.011719.011719c-13.574219 7.605469-29.226563 11.941406-45.890625 11.941406h-287.136719c-16.8125 0-32.601562-4.40625-46.257812-12.152344-19.992188-22.054687-36.195313-47.625-47.566407-75.660156-.136718-2.046875-.207031-4.125-.207031-6.214844h2.832031c10.238282 40.832032 47.1875 71.0625 91.199219 71.0625h287.136719c25.964844 0 49.476562-10.523437 66.484375-27.542968 11.832031-11.820313 20.511719-26.78125 24.714844-43.519532zm0 0"/><path d="m181.40625 38.785156v219.4375c0 10.648438-8.640625 19.289063-19.296875 19.289063h-131.292969v-188.183594c0-27.910156 22.621094-50.542969 50.53125-50.542969zm0 0"/><path d="m346.113281 345.976562v7.503907c0 15.179687-12.308593 27.5-27.503906 27.5h-125.230469c-15.191406 0-27.5-12.320313-27.5-27.5v-7.503907zm0 0"/></g><path d="m439.382812 84.574219v206.742187c0 2.195313-1.785156 3.980469-3.980468 3.980469h-358.808594c-2.203125 0-3.992188-1.785156-3.992188-3.980469v-206.742187c0-2.195313 1.789063-3.992188 3.992188-3.992188h358.808594c2.195312 0 3.980468 1.796875 3.980468 3.992188zm0 0" fill="#fff"/><path d="m439.382812 223.992188v67.324218c0 2.195313-1.785156 3.980469-3.980468 3.980469h-358.808594c-2.203125 0-3.992188-1.785156-3.992188-3.980469v-50.132812l90.824219-65.054688 80.183594 53.289063 96.320313-90.289063zm0 0" fill="#f4a441"/><path d="m339.925781 139.121094-96.3125 90.296875 80.007813 53.171875" fill="#fcda42"/><path d="m163.425781 176.128906-33.5625 119.167969h-53.269531c-2.203125 0-3.992188-1.785156-3.992188-3.980469v-50.132812zm0 0" fill="#fcda42"/><path d="m151.855469 135.980469c0 17.515625-14.199219 31.714843-31.71875 31.714843-17.515625 0-31.714844-14.199218-31.714844-31.714843 0-17.519531 14.199219-31.71875 31.714844-31.71875 17.519531 0 31.71875 14.199219 31.71875 31.71875zm0 0" fill="#fcda42"/><path d="m162.113281 0h-141.65625c-10.652343 0-19.289062 8.636719-19.289062 19.289062v223.257813c0 10.65625 8.636719 19.289063 19.289062 19.289063h141.65625c10.652344 0 19.289063-8.632813 19.289063-19.289063v-223.257813c0-10.652343-8.632813-19.289062-19.289063-19.289062zm0 0" fill="#442463"/><path d="m160.511719 48.417969v149.328125c0 6.9375-5.625 12.558594-12.5625 12.558594h-113.328125c-6.9375 0-12.558594-5.621094-12.558594-12.558594v-149.328125c0-6.9375 5.621094-12.558594 12.558594-12.558594h113.328125c6.9375 0 12.5625 5.621094 12.5625 12.558594zm0 0" fill="#fff"/><path d="m160.511719 131.332031v66.414063c0 6.9375-5.625 12.558594-12.5625 12.558594h-113.328125c-6.9375 0-12.558594-5.621094-12.558594-12.558594v-40.625l67.988281-48.703125 55.539063 36.90625zm0 0" fill="#f4a441"/><path d="m71.179688 87.847656c0 12.128906-9.832032 21.964844-21.964844 21.964844-12.128906 0-21.960938-9.835938-21.960938-21.964844 0-12.132812 9.832032-21.964844 21.960938-21.964844 12.132812 0 21.964844 9.832032 21.964844 21.964844zm0 0" fill="#fcda42"/><path d="m160.511719 131.332031v23.90625l-14.921875-9.914062zm0 0" fill="#fcda42"/><path d="m90.050781 108.417969-28.703125 101.886719h-26.726562c-6.9375 0-12.558594-5.621094-12.558594-12.558594v-40.625zm0 0" fill="#fcda42"/><path d="m106.554688 236.027344c0 8.433594-6.835938 15.269531-15.269532 15.269531s-15.269531-6.835937-15.269531-15.269531 6.835937-15.273438 15.269531-15.273438 15.269532 6.839844 15.269532 15.273438zm0 0" fill="#583377"/></svg>