<svg height="512pt" viewBox="-70 0 512 512.001" width="512pt" xmlns="http://www.w3.org/2000/svg"><path d="m345.476562 238.074219c0-89.394531-72.464843-161.859375-161.855468-161.859375-88.777344 0-160.644532 70.851562-161.84375 159.621094-.769532 56.789062 27.71875 106.964843 71.34375 136.4375 11.664062 7.878906 18.597656 21.085937 18.597656 35.164062 0 9.078125 7.359375 16.441406 16.441406 16.441406h110.917969c9.082031 0 16.441406-7.359375 16.441406-16.441406 0-14.214844 7.164063-27.398438 18.925781-35.386719 42.867188-29.117187 71.03125-78.253906 71.03125-133.976562zm0 0" fill="#f6d867"/><path d="m183.621094 76.214844c-6.851563 0-13.597656.421875-20.21875 1.242187 79.898437 9.90625 141.742187 78.035157 141.742187 160.617188 0 55.722656-28.167969 104.863281-71.035156 133.976562-11.757813 7.988281-18.925781 21.171875-18.925781 35.386719 0 9.078125-7.359375 16.441406-16.441406 16.441406h40.335937c9.082031 0 16.441406-7.359375 16.441406-16.441406 0-14.214844 7.164063-27.398438 18.925781-35.386719 42.867188-29.113281 71.03125-78.253906 71.03125-133.976562 0-89.394531-72.464843-161.859375-161.855468-161.859375zm0 0" fill="#e0c55e"/><path d="m195.933594 512h-24.625c-32.910156 0-59.589844-26.679688-59.589844-59.585938v-9.535156c0-10.492187 8.507812-19 19.003906-19h105.796875c10.492188 0 19 8.507813 19 19v9.535156c0 32.90625-26.675781 59.585938-59.585937 59.585938zm0 0" fill="#fba826"/><path d="m238.859375 423.878906h-36.828125c9.203125 0 16.660156 7.457032 16.660156 16.660156v19.21875c0 28.851563-23.390625 52.242188-52.242187 52.242188h36.824219c28.855468 0 52.246093-23.390625 52.246093-52.242188v-19.21875c0-9.203124-7.457031-16.660156-16.660156-16.660156zm0 0" fill="#e09721"/><g fill="#495663"><path d="m187.679688 58.699219c4.203124 0 7.613281-3.410157 7.613281-7.613281v-43.472657c0-4.203125-3.410157-7.613281-7.613281-7.613281-4.203126 0-7.613282 3.410156-7.613282 7.613281v43.472657c0 4.203124 3.410156 7.613281 7.613282 7.613281zm0 0"/><path d="m43.734375 114.117188c2.976563-2.972657 2.976563-7.792969 0-10.765626l-30.738281-30.738281c-2.972656-2.972656-7.792969-2.972656-10.765625 0-2.972657 2.972657-2.972657 7.792969 0 10.761719l30.742187 30.742188c2.972656 2.972656 7.792969 2.972656 10.761719 0zm0 0"/><path d="m370.15625 79.789062c-2.972656-2.972656-7.792969-2.972656-10.765625 0l-30.742187 30.742188c-4.808594 4.808594-1.335938 12.992188 5.382812 12.992188 5.605469 0 4.996094-2.941407 36.125-32.96875 2.972656-2.976563 2.972656-7.792969 0-10.765626zm0 0"/><path d="m186.191406 309.472656c-44.085937 0-85.644531-6.195312-117.019531-17.441406-33.820313-12.125-52.449219-29.242188-52.449219-48.195312 0-4.203126 3.40625-7.609376 7.613282-7.609376 4.203124 0 7.613281 3.40625 7.613281 7.609376 0 23.84375 63.34375 50.410156 154.246093 50.410156 90.898438 0 154.246094-26.566406 154.246094-50.410156 0-4.203126 3.40625-7.609376 7.613282-7.609376 4.203124 0 7.609374 3.40625 7.609374 7.609376 0 18.953124-18.625 36.070312-52.449218 48.195312-31.378906 11.246094-72.933594 17.441406-117.023438 17.441406zm0 0"/><path d="m186.191406 192.515625c-59.519531 0-115.058594-11.726563-144.9375-30.609375-3.554687-2.242188-4.617187-6.945312-2.371094-10.5 2.246094-3.554688 6.949219-4.613281 10.5-2.367188 27.585938 17.425782 80.007813 28.253907 136.808594 28.253907 56.804688 0 109.226563-10.828125 136.8125-28.253907 3.550782-2.246093 8.253906-1.183593 10.5 2.371094 2.246094 3.550782 1.183594 8.253906-2.371094 10.5-29.882812 18.878906-85.417968 30.605469-144.941406 30.605469zm0 0"/><path d="m186.191406 428.644531c-19.710937 0-36.78125-19.382812-49.359375-56.058593-11.527343-33.605469-17.875-78.136719-17.875-125.386719s6.347657-91.78125 17.875-125.386719c12.578125-36.671875 29.648438-56.058594 49.359375-56.058594 19.714844 0 36.785156 19.386719 49.363282 56.058594 11.527343 33.605469 17.875 78.136719 17.875 125.386719s-6.347657 91.78125-17.875 125.386719c-12.578126 36.675781-29.648438 56.058593-49.363282 56.058593zm0-347.664062c-12.058594 0-25.128906 17.109375-34.957031 45.769531-10.996094 32.058594-17.054687 74.835938-17.054687 120.449219s6.058593 88.390625 17.054687 120.449219c9.828125 28.660156 22.898437 45.773437 34.957031 45.773437 12.0625 0 25.132813-17.113281 34.960938-45.773437 10.996094-32.058594 17.054687-74.835938 17.054687-120.449219s-6.058593-88.390625-17.054687-120.449219c-9.828125-28.660156-22.898438-45.769531-34.960938-45.769531zm0 0"/><path d="m186.191406 472.722656c-24.230468 0-48.460937-2.796875-73.03125-8.390625-4.101562-.933593-6.667968-5.011719-5.734375-9.113281.933594-4.097656 5.011719-6.667969 9.113281-5.730469 46.871094 10.667969 92.441407 10.667969 139.308594 0 4.097656-.933593 8.179688 1.632813 9.113282 5.730469.929687 4.101562-1.632813 8.179688-5.734376 9.113281-24.574218 5.59375-48.804687 8.390625-73.035156 8.390625zm0 0"/></g></svg>