<svg height="512pt" viewBox="0 -17 512 512" width="512pt" xmlns="http://www.w3.org/2000/svg"><path d="m488.183594 478.914062h-464.367188c-13.152344 0-23.816406-10.664062-23.816406-23.816406v-428.453125c0-14.714843 11.929688-26.644531 26.644531-26.644531h458.441407c14.863281 0 26.914062 12.050781 26.914062 26.914062v428.183594c0 13.152344-10.664062 23.816406-23.816406 23.816406zm0 0" fill="#f4f4f4"/><path d="m485.085938 0h-11.335938c1.152344 2.953125 1.792969 6.167969 1.792969 9.527344v459.859375c0 3.359375-.640625 6.574219-1.792969 9.527343h14.433594c13.152344 0 23.816406-10.664062 23.816406-23.816406v-428.183594c0-14.863281-12.050781-26.914062-26.914062-26.914062zm0 0" fill="#e8e8e8"/><path d="m0 92.164062h512v-67.628906c0-13.550781-10.984375-24.535156-24.535156-24.535156h-462.929688c-13.550781 0-24.535156 10.984375-24.535156 24.535156zm0 0" fill="#5994ce"/><path d="m487.464844 0h-13.714844c1.152344 2.953125 1.792969 6.167969 1.792969 9.527344v82.636718h36.457031v-67.628906c0-13.550781-10.984375-24.535156-24.535156-24.535156zm0 0" fill="#4c7eb0"/><path d="m79.640625 46.082031c0 10.042969-8.140625 18.1875-18.1875 18.1875-10.042969 0-18.183594-8.144531-18.183594-18.1875s8.140625-18.1875 18.183594-18.1875c10.046875 0 18.1875 8.144531 18.1875 18.1875zm0 0" fill="#fa5d72"/><path d="m141.207031 46.082031c0 10.042969-8.144531 18.1875-18.1875 18.1875-10.046875 0-18.1875-8.144531-18.1875-18.1875s8.140625-18.1875 18.1875-18.1875c10.042969 0 18.1875 8.144531 18.1875 18.1875zm0 0" fill="#f6d867"/><path d="m202.769531 46.082031c0 10.042969-8.144531 18.1875-18.1875 18.1875s-18.1875-8.144531-18.1875-18.1875 8.144531-18.1875 18.1875-18.1875 18.1875 8.144531 18.1875 18.1875zm0 0" fill="#279463"/><path d="m383.804688 244.1875c1.792968 3.105469 5.296874 4.804688 8.84375 4.292969 2.476562-.359375 5.199218-.660157 7.78125-.894531 1.839843-.164063 3.664062.457031 5.023437 1.703124 1.363281 1.246094 2.140625 3.003907 2.140625 4.851563v61.023437c0 1.847657-.777344 3.605469-2.140625 4.851563-1.359375 1.246094-3.183594 1.867187-5.023437 1.703125-2.582032-.234375-5.304688-.535156-7.78125-.894531-3.546876-.511719-7.050782 1.1875-8.84375 4.292969l-28.859376 49.984374c-1.792968 3.105469-1.511718 6.992188.707032 9.804688 1.546875 1.964844 3.167968 4.175781 4.664062 6.292969 1.0625 1.511719 1.4375 3.402343 1.039063 5.203125-.398438 1.800781-1.535157 3.355468-3.132813 4.277344l-52.851562 30.515624c-1.597656.921876-3.511719 1.128907-5.269532.574219-1.761718-.558593-3.210937-1.828125-3.984374-3.503906-1.089844-2.351563-2.191407-4.863281-3.121094-7.183594-1.324219-3.328125-4.550782-5.515625-8.136719-5.515625h-57.71875c-3.582031 0-6.808594 2.1875-8.136719 5.515625-.925781 2.324219-2.03125 4.832031-3.117187 7.183594-.777344 1.675781-2.226563 2.945313-3.988281 3.503906-1.757813.554688-3.671876.347657-5.269532-.574219l-52.851562-30.515624c-1.597656-.921876-2.730469-2.472657-3.128906-4.277344-.398438-1.800782-.027344-3.691406 1.039062-5.203125 1.492188-2.117188 3.113281-4.328125 4.660156-6.292969 2.222656-2.8125 2.5-6.699219.707032-9.804688l-28.859376-49.984374c-1.789062-3.105469-5.296874-4.804688-8.84375-4.292969-2.472656.359375-5.199218.660156-7.78125.894531-1.839843.164062-3.664062-.457031-5.023437-1.703125-1.363281-1.246094-2.140625-3.003906-2.140625-4.851563v-61.023437c0-1.847656.777344-3.605469 2.140625-4.851563 1.359375-1.246093 3.183594-1.867187 5.023437-1.703124 2.582032.234374 5.308594.535156 7.78125.894531 3.546876.511719 7.050782-1.1875 8.84375-4.292969l28.859376-49.984375c1.792968-3.105469 1.511718-6.992187-.707032-9.804687-1.546875-1.964844-3.167968-4.175782-4.660156-6.292969-1.066406-1.511719-1.4375-3.402344-1.039062-5.203125.398437-1.800782 1.53125-3.355469 3.128906-4.277344l52.851562-30.515625c1.597656-.921875 3.511719-1.128906 5.269532-.574219 1.761718.558594 3.210937 1.828125 3.988281 3.503906 1.085937 2.351563 2.191406 4.863282 3.117187 7.183594 1.328125 3.328125 4.554688 5.515625 8.136719 5.515625h57.71875c3.585937 0 6.808594-2.1875 8.136719-5.515625.929687-2.324218 2.03125-4.832031 3.121094-7.183594.773437-1.675781 2.226562-2.945312 3.984374-3.503906 1.757813-.554687 3.671876-.347656 5.269532.574219l52.851562 30.515625c1.597656.921875 2.734375 2.472656 3.132813 4.277344.398437 1.800781.023437 3.691406-1.039063 5.203125-1.496094 2.117187-3.117187 4.328125-4.664062 6.292969-2.21875 2.8125-2.5 6.699218-.707032 9.804687zm-127.804688-35.332031c-41.859375 0-75.796875 33.933593-75.796875 75.796875 0 41.863281 33.933594 75.796875 75.796875 75.796875s75.796875-33.933594 75.796875-75.796875c0-41.863282-33.9375-75.796875-75.796875-75.796875zm0 0" fill="#5994ce"/><path d="m405.453125 249.289062c-1.359375-1.246093-3.183594-1.867187-5.023437-1.703124-2.582032.234374-5.304688.535156-7.78125.894531-3.546876.511719-7.050782-1.1875-8.84375-4.292969l-28.859376-49.984375c-1.792968-3.105469-1.511718-6.992187.707032-9.804687 1.546875-1.964844 3.167968-4.175782 4.664062-6.292969 1.0625-1.511719 1.4375-3.402344 1.039063-5.203125-.398438-1.800782-1.535157-3.355469-3.132813-4.277344l-52.851562-30.515625c-1.597656-.921875-3.511719-1.128906-5.269532-.574219-1.761718.558594-3.210937 1.828125-3.984374 3.503906-1.089844 2.351563-2.191407 4.863282-3.121094 7.183594-.308594.773438-.726563 1.480469-1.222656 2.117188l31.667968 18.285156c1.597656.921875 2.734375 2.472656 3.132813 4.277344.398437 1.800781.023437 3.691406-1.039063 5.203125-1.492187 2.117187-3.113281 4.328125-4.664062 6.292969-2.21875 2.8125-2.5 6.699218-.707032 9.804687l28.859376 49.984375c1.792968 3.105469 5.300781 4.804688 8.847656 4.292969 2.472656-.359375 5.199218-.660157 7.78125-.894531 1.835937-.164063 3.664062.457031 5.023437 1.703124 1.359375 1.246094 2.140625 3.003907 2.140625 4.851563v61.023437c0 1.847657-.777344 3.605469-2.140625 4.851563s-3.1875 1.867187-5.023437 1.703125c-2.582032-.234375-5.308594-.535156-7.78125-.894531-3.546875-.511719-7.054688 1.1875-8.847656 4.292969l-28.859376 49.984374c-1.789062 3.105469-1.511718 6.992188.707032 9.804688 1.550781 1.964844 3.171875 4.175781 4.664062 6.292969 1.0625 1.511719 1.4375 3.402343 1.039063 5.203125-.398438 1.800781-1.535157 3.355468-3.132813 4.277344l-31.667968 18.285156c.496093.640625.914062 1.34375 1.222656 2.117187.929687 2.324219 2.03125 4.832031 3.121094 7.183594.773437 1.675781 2.226562 2.945313 3.984374 3.503906 1.757813.554688 3.671876.347657 5.269532-.574219l52.851562-30.515624c1.597656-.921876 2.734375-2.472657 3.132813-4.277344.398437-1.800782.023437-3.691406-1.039063-5.203125-1.496094-2.117188-3.117187-4.328125-4.664062-6.292969-2.21875-2.8125-2.5-6.699219-.707032-9.804688l28.859376-49.984374c1.792968-3.105469 5.296874-4.804688 8.84375-4.292969 2.476562.359375 5.199218.660156 7.78125.894531 1.839843.164062 3.664062-.457031 5.023437-1.703125 1.363281-1.246094 2.140625-3.003906 2.140625-4.851563v-61.023437c0-1.847656-.777344-3.605469-2.140625-4.851563zm0 0" fill="#4c7eb0"/><path d="m270.078125 53.808594h188.179687c4.269532 0 7.726563-3.457032 7.726563-7.726563 0-4.265625-3.457031-7.726562-7.726563-7.726562h-188.179687c-4.265625 0-7.726563 3.460937-7.726563 7.726562 0 4.269531 3.460938 7.726563 7.726563 7.726563zm0 0" fill="#495663"/></svg>