<svg height="512pt" viewBox="0 -17 512.001 512" width="512pt" xmlns="http://www.w3.org/2000/svg"><path d="m484.460938 478.914062h-460.644532c-13.152344 0-23.816406-10.660156-23.816406-23.816406v-425.742187c0-16.210938 13.140625-29.355469 29.355469-29.355469h456.042969c14.691406 0 26.601562 11.910156 26.601562 26.605469v424.769531c0 15.210938-12.332031 27.539062-27.539062 27.539062zm0 0" fill="#f4f4f4"/><path d="m487.464844 0h-36.054688c13.550782 0 24.535156 10.988281 24.535156 24.535156v429.84375c0 13.550782-10.984374 24.535156-24.535156 24.535156h36.054688c13.550781 0 24.535156-10.984374 24.535156-24.535156v-429.84375c0-13.546875-10.984375-24.535156-24.535156-24.535156zm0 0" fill="#e8e8e8"/><path d="m0 92.164062h512v-67.628906c0-13.550781-10.984375-24.535156-24.535156-24.535156h-462.929688c-13.550781 0-24.535156 10.988281-24.535156 24.535156zm0 0" fill="#5994ce"/><path d="m487.464844 0h-36.054688c13.550782 0 24.535156 10.988281 24.535156 24.535156v67.628906h36.054688v-67.628906c0-13.546875-10.984375-24.535156-24.535156-24.535156zm0 0" fill="#4c7eb0"/><path d="m79.640625 46.082031c0 10.046875-8.140625 18.1875-18.1875 18.1875-10.042969 0-18.183594-8.140625-18.183594-18.1875 0-10.042969 8.140625-18.183593 18.183594-18.183593 10.046875 0 18.1875 8.140624 18.1875 18.183593zm0 0" fill="#fa5d72"/><path d="m141.207031 46.082031c0 10.046875-8.144531 18.1875-18.1875 18.1875-10.046875 0-18.1875-8.140625-18.1875-18.1875 0-10.042969 8.140625-18.183593 18.1875-18.183593 10.042969 0 18.1875 8.140624 18.1875 18.183593zm0 0" fill="#f6d867"/><path d="m202.769531 46.082031c0 10.046875-8.144531 18.1875-18.1875 18.1875s-18.1875-8.140625-18.1875-18.1875c0-10.042969 8.144531-18.183593 18.1875-18.183593s18.1875 8.140624 18.1875 18.183593zm0 0" fill="#279463"/><path d="m455.558594 226.753906h-399.117188c-5.480468 0-9.917968-4.441406-9.917968-9.917968v-47.636719c0-5.476563 4.441406-9.917969 9.917968-9.917969h399.117188c5.480468 0 9.917968 4.441406 9.917968 9.917969v47.636719c.003907 5.476562-4.4375 9.917968-9.917968 9.917968zm0 0" fill="#a7c3de"/><path d="m455.558594 159.28125h-24.511719c1.125 1.820312 1.78125 3.957031 1.78125 6.253906v54.964844c0 2.296875-.660156 4.433594-1.78125 6.253906h24.511719c5.480468 0 9.917968-4.441406 9.917968-9.917968v-47.636719c.003907-5.476563-4.4375-9.917969-9.917968-9.917969zm0 0" fill="#93acc4"/><path d="m410.035156 412.050781h-308.070312c-13.980469 0-25.316406-11.335937-25.316406-25.316406v-159.980469h358.703124v159.980469c0 13.980469-11.335937 25.316406-25.316406 25.316406zm0 0" fill="#5994ce"/><path d="m404.089844 395.746094c0 6.015625-1.78125 11.613281-4.839844 16.304687h10.785156c13.980469 0 25.316406-11.335937 25.316406-25.316406v-159.980469h-31.261718zm0 0" fill="#4c7eb0"/><path d="m270.078125 53.808594h188.179687c4.269532 0 7.726563-3.457032 7.726563-7.726563 0-4.265625-3.457031-7.722656-7.726563-7.722656h-188.179687c-4.265625 0-7.726563 3.457031-7.726563 7.722656 0 4.269531 3.460938 7.726563 7.726563 7.726563zm0 0" fill="#495663"/><path d="m175.335938 180.761719-7.523438 15.703125-7.523438-15.703125c-.796874-1.660157-2.808593-2.34375-4.464843-1.535157-1.832031.890626-1.207031 1.367188-9.066407 17.238282l-7.523437-15.703125c-1.902344-3.96875-7.941406-1.054688-6.003906 2.929687l10.527343 21.582032c.808594 1.65625 2.808594 2.34375 4.464844 1.535156h.003906c1.742188-.851563 1.242188-1.355469 9.058594-16.972656l7.527344 15.4375c1.257812 2.574218 4.957031 2.453124 6.070312-.148438l10.457032-21.433594c1.941406-3.988281-4.101563-6.890625-6.003906-2.929687zm0 0" fill="#495663"/><path d="m433.476562 188.089844c-.394531-.476563-15.136718-14.980469-15.238281-15.082032-3.039062-3-7.929687-2.960937-10.925781.074219-2.996094 3.039063-2.964844 7.929688.074219 10.925781l1.300781 1.285157h-14.816406c-4.265625 0-7.722656 3.457031-7.722656 7.722656 0 4.269531 3.457031 7.726563 7.722656 7.726563h14.816406l-1.300781 1.285156c-4.933594 4.863281-1.421875 13.226562 5.425781 13.226562 1.960938 0 3.921875-.742187 5.425781-2.226562 15.527344-15.3125 14.875-14.644532 15.238281-15.082032 2.367188-2.855468 2.367188-7 0-9.855468zm0 0" fill="#5994ce"/><g fill="#495663"><path d="m340.53125 257.253906h-230.875c-4.265625 0-7.726562 3.460938-7.726562 7.726563 0 4.269531 3.460937 7.726562 7.726562 7.726562h230.875c4.269531 0 7.726562-3.457031 7.726562-7.726562 0-4.265625-3.457031-7.726563-7.726562-7.726563zm0 0"/><path d="m340.53125 302.816406h-230.875c-4.265625 0-7.726562 3.457032-7.726562 7.722656 0 4.269532 3.460937 7.726563 7.726562 7.726563h230.875c4.269531 0 7.726562-3.457031 7.726562-7.726563 0-4.265624-3.457031-7.722656-7.726562-7.722656zm0 0"/><path d="m340.53125 348.375h-230.875c-4.265625 0-7.726562 3.457031-7.726562 7.722656 0 4.269532 3.460937 7.726563 7.726562 7.726563h230.875c4.269531 0 7.726562-3.457031 7.726562-7.726563 0-4.265625-3.457031-7.722656-7.726562-7.722656zm0 0"/><path d="m228.441406 180.761719-7.527344 15.703125-7.523437-15.703125c-.796875-1.660157-2.804687-2.34375-4.460937-1.535157-1.832032.890626-1.207032 1.367188-9.066407 17.238282l-7.523437-15.703125c-1.902344-3.96875-7.945313-1.054688-6.003906 2.929687l10.527343 21.582032c.808594 1.65625 2.808594 2.34375 4.464844 1.535156 1.742187-.851563 1.246094-1.355469 9.0625-16.972656l7.527344 15.4375c1.257812 2.574218 4.953125 2.453124 6.070312-.148438l10.453125-21.433594c1.945313-3.988281-4.101562-6.890625-6-2.929687zm0 0"/><path d="m121.941406 180.761719-7.527344 15.703125-7.523437-15.703125c-.796875-1.660157-2.804687-2.34375-4.460937-1.535157-1.832032.890626-1.207032 1.367188-9.066407 17.238282l-7.523437-15.703125c-1.902344-3.96875-7.945313-1.054688-6.003906 2.929687l10.527343 21.582032c.808594 1.65625 2.808594 2.34375 4.464844 1.535156 1.742187-.851563 1.246094-1.355469 9.0625-16.972656l7.527344 15.4375c1.257812 2.574218 4.953125 2.453124 6.070312-.148438l10.453125-21.433594c1.945313-3.988281-4.101562-6.890625-6-2.929687zm0 0"/></g></svg>