<svg height="512pt" viewBox="0 -8 512 512" width="512pt" xmlns="http://www.w3.org/2000/svg"><path d="m455.261719 301.328125h-398.523438c-17.394531 0-31.5-14.105469-31.5-31.5v-238.328125c0-17.398438 14.105469-31.5 31.5-31.5h398.523438c17.394531 0 31.5 14.101562 31.5 31.5v238.328125c0 17.394531-14.105469 31.5-31.5 31.5zm0 0" fill="#c0e4f0"/><path d="m455.261719 0h-16.765625c4.164062 5.835938 6.621094 12.976562 6.621094 20.691406v259.945313c0 7.714843-2.457032 14.855469-6.621094 20.691406h16.765625c17.394531 0 31.5-14.101563 31.5-31.5v-238.328125c0-17.398438-14.105469-31.5-31.5-31.5zm0 0" fill="#a6d6e2"/><path d="m25.238281 213.257812v51.632813c0 20.125 16.3125 36.4375 36.4375 36.4375h388.648438c20.121093 0 36.4375-16.3125 36.4375-36.4375v-51.632813zm0 0" fill="#9c9a9b"/><path d="m445.117188 280.636719c0 7.714843-2.457032 14.855469-6.621094 20.691406h11.828125c20.125 0 36.4375-16.3125 36.4375-36.4375v-51.632813h-41.644531zm0 0" fill="#858384"/><path d="m403.296875 391.664062h-294.59375l48.699219-90.335937h197.195312zm0 0" fill="#9c9a9b"/><path d="m362.863281 316.660156-8.265625-15.332031h-197.195312l-8.265625 15.332031zm0 0" fill="#858384"/><path d="m495.203125 496.03125h-278.304687c-9.277344 0-16.796876-7.519531-16.796876-16.796875v-196.742187c0-9.277344 7.519532-16.796876 16.796876-16.796876h278.304687c9.277344 0 16.796875 7.519532 16.796875 16.796876v196.742187c0 9.277344-7.519531 16.796875-16.796875 16.796875zm0 0" fill="#f4f4f4"/><path d="m495.203125 265.695312h-24.523437c.445312 1.632813.703124 3.339844.703124 5.113282v220.109375c0 1.773437-.257812 3.480469-.703124 5.113281h24.523437c9.277344 0 16.796875-7.519531 16.796875-16.796875v-196.742187c0-9.277344-7.519531-16.796876-16.796875-16.796876zm0 0" fill="#e8e8e8"/><path d="m460.824219 462.144531h-187.832031c-6.585938 0-11.925782-5.335937-11.925782-11.925781v-138.714844c0-6.585937 5.339844-11.925781 11.925782-11.925781h187.832031c6.585937 0 11.925781 5.339844 11.925781 11.925781v138.714844c0 6.589844-5.339844 11.925781-11.925781 11.925781zm0 0" fill="#c0e4f0"/><path d="m441.835938 299.578125v162.566406h18.988281c6.585937 0 11.925781-5.335937 11.925781-11.925781v-138.714844c0-6.585937-5.339844-11.925781-11.925781-11.925781zm0 0" fill="#a6d6e2"/><path d="m143.710938 496.03125h-124.292969c-10.726563 0-19.417969-8.695312-19.417969-19.417969v-214.167969c0-10.726562 8.691406-19.417968 19.417969-19.417968h124.292969c10.726562 0 19.417968 8.691406 19.417968 19.417968v214.167969c0 10.722657-8.691406 19.417969-19.417968 19.417969zm0 0" fill="#f4f4f4"/><path d="m143.710938 243.027344h-8.078126c1.324219 2.828125 2.066407 5.980468 2.066407 9.308594v234.386718c0 3.328125-.742188 6.480469-2.066407 9.308594h8.078126c10.726562 0 19.417968-8.691406 19.417968-19.417969v-214.167969c0-10.722656-8.695312-19.417968-19.417968-19.417968zm0 0" fill="#e8e8e8"/><path d="m124.898438 447.300781h-86.667969c-7.214844 0-13.058594-5.847656-13.058594-13.058593v-153.632813c0-7.210937 5.84375-13.054687 13.058594-13.054687h86.667969c7.214843 0 13.058593 5.84375 13.058593 13.054687v153.632813c0 7.210937-5.847656 13.058593-13.058593 13.058593zm0 0" fill="#c0e4f0"/><path d="m113.816406 267.554688v179.746093h11.082032c7.214843 0 13.058593-5.847656 13.058593-13.058593v-153.632813c0-7.210937-5.84375-13.054687-13.058593-13.054687zm0 0" fill="#a6d6e2"/><g fill="#9c9a9b"><path d="m230.148438 363.351562c-4.265626 0-7.722657 3.457032-7.722657 7.722657v19.574219c0 4.265624 3.457031 7.726562 7.722657 7.726562 4.269531 0 7.726562-3.460938 7.726562-7.726562v-19.574219c.003906-4.265625-3.457031-7.722657-7.726562-7.722657zm0 0"/><path d="m66.234375 463.132812c-4.265625 0-7.722656 3.460938-7.722656 7.726563s3.457031 7.726563 7.722656 7.726563h18.074219c4.265625 0 7.722656-3.460938 7.722656-7.726563s-3.457031-7.726563-7.722656-7.726563zm0 0"/></g></svg>