<svg height="512pt" viewBox="0 -17 512 512" width="512pt" xmlns="http://www.w3.org/2000/svg"><path d="m488.183594 478.914062h-464.367188c-13.152344 0-23.816406-10.664062-23.816406-23.816406v-428.308594c0-14.792968 11.996094-26.789062 26.789062-26.789062h459.824219c14.023438 0 25.386719 11.363281 25.386719 25.386719v429.710937c0 13.152344-10.664062 23.816406-23.816406 23.816406zm0 0" fill="#f4f4f4"/><path d="m486.613281 0h-13.226562c1.398437 3.203125 2.179687 6.734375 2.179687 10.453125v458.007813c0 3.71875-.78125 7.25-2.179687 10.453124h14.796875c13.152344 0 23.816406-10.664062 23.816406-23.816406v-429.710937c0-14.023438-11.363281-25.386719-25.386719-25.386719zm0 0" fill="#e8e8e8"/><path d="m0 92.164062h512v-67.628906c0-13.550781-10.984375-24.535156-24.535156-24.535156h-462.929688c-13.550781 0-24.535156 10.984375-24.535156 24.535156zm0 0" fill="#fa5d72"/><path d="m487.464844 0h-14.078125c1.398437 3.203125 2.179687 6.734375 2.179687 10.453125v81.710937h36.433594v-67.628906c0-13.550781-10.984375-24.535156-24.535156-24.535156zm0 0" fill="#e35567"/><path d="m426.0625 154.769531c2.5625-3.410156 1.875-8.253906-1.539062-10.816406-3.414063-2.5625-8.257813-1.875-10.816407 1.539063l-93.65625 124.75-98.609375-107.824219c-.03125-.03125-.0625-.058594-.089844-.089844-.09375-.097656-.195312-.191406-.292968-.289063-.089844-.085937-.175782-.171874-.269532-.25-.101562-.089843-.207031-.171874-.3125-.253906-.097656-.074218-.195312-.152344-.296874-.222656-.105469-.074219-.210938-.136719-.316407-.207031-.109375-.070313-.21875-.140625-.332031-.203125-.101562-.058594-.203125-.109375-.308594-.160156-.121094-.0625-.242187-.125-.371094-.179688-.097656-.042969-.199218-.082031-.300781-.121094-.132812-.050781-.265625-.101562-.398437-.144531-.097656-.035156-.203125-.0625-.304688-.089844-.136718-.039062-.273437-.078125-.410156-.109375-.105469-.023437-.210938-.039062-.316406-.058594-.136719-.027343-.273438-.050781-.410156-.066406-.109376-.015625-.222657-.023437-.335938-.03125-.132812-.011718-.265625-.023437-.398438-.027344-.117187-.003906-.234374-.003906-.355468 0-.125 0-.253906.003907-.382813.011719-.121093.007813-.242187.023438-.363281.035157-.125.015624-.246094.027343-.371094.046874-.121094.019532-.242187.046876-.363281.070313-.125.027344-.246094.054687-.367187.085937-.117188.03125-.234376.066407-.351563.105469-.125.039063-.246094.078125-.371094.121094-.109375.042969-.214843.089844-.324219.132813-.128906.054687-.253906.109374-.378906.167968-.101562.050782-.199218.105469-.300781.160156-.125.070313-.25.136719-.375.214844-.097656.0625-.191406.125-.285156.191406-.121094.082032-.238281.164063-.355469.253907-.03125.023437-.0625.042969-.09375.066406l-113.300781 89.929687c-3.34375 2.652344-3.902344 7.515626-1.25 10.855469 1.527343 1.921875 3.78125 2.925781 6.058593 2.925781 1.683594 0 3.378907-.550781 4.796876-1.675781l107.660156-85.453125 99.941406 109.28125c.007812.007813.015625.019532.023438.027344l.070312.078125c.046875.046875.09375.089844.140625.136719.128906.132812.257813.261718.394531.386718.097656.085938.195313.164063.292969.242188.082031.066406.15625.136719.238281.199219.019532.011719.039063.023437.058594.039062.304688.222657.625.425781.957031.597657.0625.035156.128907.066406.195313.097656.296875.148437.601562.277344.914062.386718.046875.015626.097656.039063.148438.054688.335937.105469.675781.183594 1.023437.246094.089844.015625.183594.03125.277344.042968.339844.046876.683594.078126 1.027344.082032h.03125.011719c.265624 0 .53125-.019532.796874-.042969.074219-.007813.148438-.023437.222657-.03125.195312-.027344.394531-.058594.589843-.101563.078126-.015624.15625-.035156.238282-.054687.195312-.050781.394531-.105469.585937-.171875.066407-.019531.132813-.042969.199219-.0625.507812-.1875.996094-.421875 1.464844-.714844.082031-.054687.164062-.113281.246094-.167968.140624-.097657.28125-.199219.417968-.308594.09375-.074219.183594-.148438.273438-.226563.054687-.046875.117187-.089843.171875-.140625.066406-.0625.128906-.132812.191406-.195312.085937-.082032.171875-.164063.253906-.253906.144531-.15625.28125-.320313.410157-.488282.035156-.042968.074218-.082031.109374-.125l.070313-.097656c.003906-.003906.007813-.007812.007813-.011719zm0 0" fill="#495663"/><path d="m79.640625 46.082031c0 10.042969-8.140625 18.1875-18.1875 18.1875-10.042969 0-18.183594-8.144531-18.183594-18.1875s8.140625-18.1875 18.183594-18.1875c10.046875 0 18.1875 8.144531 18.1875 18.1875zm0 0" fill="#279463"/><path d="m141.207031 46.082031c0 10.042969-8.144531 18.1875-18.1875 18.1875-10.046875 0-18.1875-8.144531-18.1875-18.1875s8.140625-18.1875 18.1875-18.1875c10.042969 0 18.1875 8.144531 18.1875 18.1875zm0 0" fill="#f6d867"/><path d="m202.769531 46.082031c0 10.042969-8.144531 18.1875-18.1875 18.1875s-18.1875-8.144531-18.1875-18.1875 8.144531-18.1875 18.1875-18.1875 18.1875 8.144531 18.1875 18.1875zm0 0" fill="#4c7eb0"/><path d="m125.503906 263.78125c0 18.441406-14.949218 33.390625-33.390625 33.390625-18.4375 0-33.386719-14.949219-33.386719-33.390625s14.949219-33.390625 33.386719-33.390625c18.441407 0 33.390625 14.949219 33.390625 33.390625zm0 0" fill="#5994ce"/><path d="m92.113281 230.390625c-1.402343 0-2.785156.097656-4.140625.265625 8.519532 8.457031 13.800782 20.167969 13.800782 33.125 0 12.953125-5.28125 24.667969-13.800782 33.125 1.355469.167969 2.738282.265625 4.140625.265625 18.441407 0 33.390625-14.949219 33.390625-33.390625s-14.949218-33.390625-33.390625-33.390625zm0 0" fill="#4c7eb0"/><path d="m249.210938 165.59375c0 18.441406-14.949219 33.390625-33.390626 33.390625-18.441406 0-33.390624-14.949219-33.390624-33.390625s14.949218-33.390625 33.390624-33.390625c18.441407 0 33.390626 14.949219 33.390626 33.390625zm0 0" fill="#2cab72"/><path d="m215.820312 132.203125c-2.03125 0-4.011718.191406-5.941406.535156 9.582032 7.742188 15.710938 19.578125 15.710938 32.855469 0 13.273438-6.132813 25.109375-15.710938 32.851562 1.929688.347657 3.910156.539063 5.941406.539063 18.441407 0 33.390626-14.949219 33.390626-33.390625s-14.949219-33.390625-33.390626-33.390625zm0 0" fill="#279463"/><path d="m355.40625 282.332031c0 18.441407-14.949219 33.390625-33.390625 33.390625s-33.390625-14.949218-33.390625-33.390625c0-18.441406 14.949219-33.390625 33.390625-33.390625s33.390625 14.949219 33.390625 33.390625zm0 0" fill="#fba826"/><path d="m322.015625 248.941406c-1.664063 0-3.296875.125-4.894531.359375 8.96875 8.171875 14.601562 19.941407 14.601562 33.03125 0 13.089844-5.632812 24.859375-14.601562 33.03125 1.597656.234375 3.230468.359375 4.894531.359375 18.441406 0 33.390625-14.949218 33.390625-33.390625 0-18.441406-14.949219-33.390625-33.390625-33.390625zm0 0" fill="#e09721"/><path d="m453.273438 150.132812c0 18.4375-14.949219 33.386719-33.386719 33.386719-18.441407 0-33.390625-14.949219-33.390625-33.386719 0-18.441406 14.949218-33.390624 33.390625-33.390624 18.4375 0 33.386719 14.949218 33.386719 33.390624zm0 0" fill="#fa5d72"/><path d="m419.886719 116.742188c-1.957031 0-3.867188.175781-5.730469.5 9.457031 7.828124 15.488281 19.652343 15.488281 32.890624 0 13.234376-6.03125 25.0625-15.488281 32.890626 1.863281.320312 3.773438.5 5.730469.5 18.4375 0 33.386719-14.949219 33.386719-33.390626.003906-18.441406-14.949219-33.390624-33.386719-33.390624zm0 0" fill="#e35567"/><path d="m96.441406 380.355469h-14.542968c-6.398438 0-11.585938-5.191407-11.585938-11.589844v-14.542969c0-6.398437 5.1875-11.585937 11.585938-11.585937h14.542968c6.398438 0 11.585938 5.1875 11.585938 11.585937v14.542969c.003906 6.398437-5.183594 11.589844-11.585938 11.589844zm0 0" fill="#5994ce"/><path d="m96.441406 445.914062h-14.542968c-6.398438 0-11.585938-5.1875-11.585938-11.585937v-14.542969c0-6.398437 5.1875-11.585937 11.585938-11.585937h14.542968c6.398438 0 11.585938 5.1875 11.585938 11.585937v14.542969c.003906 6.402344-5.183594 11.585937-11.585938 11.585937zm0 0" fill="#2cab72"/><path d="m330.117188 380.355469h-14.542969c-6.398438 0-11.585938-5.191407-11.585938-11.589844v-14.542969c0-6.398437 5.1875-11.585937 11.585938-11.585937h14.542969c6.402343 0 11.589843 5.1875 11.589843 11.585937v14.542969c0 6.398437-5.1875 11.589844-11.589843 11.589844zm0 0" fill="#fba826"/><path d="m330.117188 445.914062h-14.542969c-6.398438 0-11.585938-5.1875-11.585938-11.585937v-14.542969c0-6.398437 5.1875-11.585937 11.585938-11.585937h14.542969c6.402343 0 11.589843 5.1875 11.589843 11.585937v14.542969c0 6.402344-5.1875 11.585937-11.589843 11.585937zm0 0" fill="#fa5d72"/><g fill="#495663"><path d="m270.078125 53.808594h188.179687c4.269532 0 7.726563-3.457032 7.726563-7.726563 0-4.265625-3.460937-7.726562-7.726563-7.726562h-188.179687c-4.265625 0-7.726563 3.460937-7.726563 7.726562 0 4.269531 3.460938 7.726563 7.726563 7.726563zm0 0"/><path d="m208.011719 353.769531h-68.679688c-4.265625 0-7.726562 3.457031-7.726562 7.722657 0 4.269531 3.460937 7.726562 7.726562 7.726562h68.679688c4.265625 0 7.726562-3.457031 7.726562-7.726562 0-4.265626-3.460937-7.722657-7.726562-7.722657zm0 0"/><path d="m208.011719 419.332031h-68.679688c-4.265625 0-7.726562 3.457031-7.726562 7.726563 0 4.265625 3.460937 7.722656 7.726562 7.722656h68.679688c4.265625 0 7.726562-3.457031 7.726562-7.722656 0-4.269532-3.460937-7.726563-7.726562-7.726563zm0 0"/><path d="m441.6875 353.769531h-68.675781c-4.269531 0-7.726563 3.457031-7.726563 7.722657 0 4.269531 3.457032 7.726562 7.726563 7.726562h68.675781c4.269531 0 7.726562-3.457031 7.726562-7.726562 0-4.265626-3.457031-7.722657-7.726562-7.722657zm0 0"/><path d="m441.6875 419.332031h-68.675781c-4.269531 0-7.726563 3.457031-7.726563 7.726563 0 4.265625 3.457032 7.722656 7.726563 7.722656h68.675781c4.269531 0 7.726562-3.457031 7.726562-7.722656 0-4.269532-3.457031-7.726563-7.726562-7.726563zm0 0"/></g></svg>