<svg height="511pt" viewBox="1 -31 511.99998 511" width="511pt" xmlns="http://www.w3.org/2000/svg"><path d="m442.621094 76.992188v345.453124c0 15.277344-12.378906 27.65625-27.65625 27.65625h-387.308594c-15.277344 0-27.65625-12.378906-27.65625-27.65625v-345.453124c0-15.277344 12.378906-27.652344 27.65625-27.652344h387.308594c15.277344 0 27.65625 12.375 27.65625 27.652344zm0 0" fill="#c4e2f2"/><path d="m442.621094 76.992188v33.035156h-442.621094v-33.035156c0-15.277344 12.378906-27.652344 27.65625-27.652344h387.308594c15.277344 0 27.65625 12.375 27.65625 27.652344zm0 0" fill="#83b2c6"/><path d="m36.617188 89.625c-7.191407 0-10.585938-9.371094-4.949219-13.929688 2.429687-1.964843 5.894531-2.304687 8.652343-.839843 3.039063 1.613281 4.6875 5.167969 3.976563 8.53125-.761719 3.589843-4 6.238281-7.679687 6.238281zm0 0" fill="#e6e6e6"/><path d="m89.984375 89.625c-7.121094 0-10.507813-9.179688-5.09375-13.816406 5.46875-4.679688 14.042969.222656 12.824219 7.304687-.636719 3.71875-3.960938 6.511719-7.730469 6.511719zm0 0" fill="#e6e6e6"/><path d="m63.300781 89.625c-3.144531 0-6.035156-1.949219-7.242187-4.847656-1.289063-3.101563-.394532-6.785156 2.152344-8.96875 5.464843-4.679688 14.039062.222656 12.820312 7.304687-.636719 3.722657-3.960938 6.511719-7.730469 6.511719zm0 0" fill="#e6e6e6"/><path d="m388.140625 74.84375-54.273437 12.609375c-9.640626 2.242187-17.171876 9.769531-19.410157 19.410156l-12.609375 54.273438c-2.027344 8.730469.589844 17.890625 6.929688 24.230469l92.027344 92.027343c10.136718 10.136719 26.574218 10.136719 36.710937 0l66.882813-66.882812c10.136718-10.136719 10.136718-26.574219 0-36.710938l-92.027344-92.027343c-6.339844-6.335938-15.5-8.957032-24.230469-6.929688zm0 0" fill="#ffe14d"/><path d="m394.25 145.03125c0 12.269531-9.945312 22.214844-22.214844 22.214844-12.269531 0-22.214844-9.945313-22.214844-22.214844s9.945313-22.214844 22.214844-22.214844c12.269532 0 22.214844 9.945313 22.214844 22.214844zm0 0" fill="#c4e2f2"/><path d="m377.792969 150.367188c-1.550781 1.671874-3.652344 2.511718-5.757813 2.511718-1.914062 0-3.828125-.691406-5.335937-2.09375-.792969-.734375-19.640625-18.28125-38.871094-41.125-26.609375-31.597656-40.277344-57.058594-40.621094-75.683594-.179687-9.132812 2.71875-16.742187 8.601563-22.621093 11.195312-11.199219 21.816406-11.753907 28.742187-10.246094 22.601563 4.910156 37.671875 38.121094 41.773438 48.230469h-17.109375c-6.476563-13.835938-17.421875-30.609375-28-32.898438-1.683594-.367187-6.824219-1.476562-14.304688 6.003906-2.824218 2.824219-4.101562 6.40625-4.019531 11.238282.578125 30.449218 53.964844 86.546875 74.484375 105.589844 3.179688 2.953124 3.355469 7.921874.417969 11.09375zm0 0" fill="#3c3f4d"/><path d="m396.675781 218.230469c-2.007812 0-4.019531-.765625-5.550781-2.296875-3.0625-3.066406-3.0625-8.035156 0-11.097656l40.714844-40.714844c3.0625-3.0625 8.03125-3.0625 11.097656 0 3.0625 3.066406 3.0625 8.035156 0 11.097656l-40.714844 40.714844c-1.53125 1.53125-3.539062 2.296875-5.546875 2.296875zm0 0" fill="#3c3f4d"/><path d="m418.125 239.683594c-2.007812 0-4.015625-.765625-5.546875-2.300782-3.066406-3.0625-3.066406-8.03125 0-11.097656l40.710937-40.710937c3.066407-3.066407 8.035157-3.066407 11.097657 0 3.066406 3.0625 3.066406 8.03125 0 11.097656l-40.710938 40.710937c-1.53125 1.535157-3.539062 2.300782-5.550781 2.300782zm0 0" fill="#3c3f4d"/><path d="m244.46875 308.839844-2.742188 20.929687-8.777343 66.851563c-1.582031 12.042968-11.835938 21.042968-23.984375 21.042968h-104.785156c-12.148438 0-22.402344-9-23.984376-21.042968l-11.519531-87.78125 87.894531-23.542969zm0 0" fill="#e2720e"/><path d="m241.726562 329.769531-8.777343 66.851563c-1.582031 12.042968-11.835938 21.042968-23.984375 21.042968h-71.300782c-12.148437 0-22.402343-9-23.984374-21.042968l-5.949219-45.308594c-1.5-11.414062 7.386719-21.542969 18.902343-21.542969zm0 0" fill="#ff8e1d"/><path d="m256.5 285.171875v12.808594c0 5.996093-4.863281 10.859375-10.859375 10.859375h-178.136719c-5.996094 0-10.859375-4.863282-10.859375-10.859375v-12.808594c0-5.996094 4.863281-10.863281 10.859375-10.863281h178.136719c5.996094 0 10.859375 4.867187 10.859375 10.863281zm0 0" fill="#e2720e"/><path d="m256.5 285.171875v12.808594c0 5.996093-4.863281 10.859375-10.859375 10.859375h-136.28125c-5.996094 0-10.863281-4.863282-10.863281-10.859375v-12.808594c0-5.996094 4.867187-10.863281 10.863281-10.863281h136.28125c5.996094 0 10.859375 4.867187 10.859375 10.863281zm0 0" fill="#ff8e1d"/><path d="m156.570312 225.128906c-9.824218 0-17.785156 7.964844-17.785156 17.789063v84.757812c0 9.824219 7.960938 17.789063 17.785156 17.789063 9.828126 0 17.789063-7.964844 17.789063-17.789063v-84.757812c0-9.824219-7.960937-17.789063-17.789063-17.789063zm0 0" fill="#3c3f4d"/><path d="m335.886719 383.65625c-4.277344 0-7.847657-3.574219-7.847657-7.847656 0-2.308594 1.035157-4.277344 2.628907-5.878906 2.273437-2.28125 4.558593-4.558594 6.839843-6.839844 7.195313-7.195313 14.394532-14.390625 21.585938-21.585938 1.867188-1.863281 3.890625-4.492187 6.414062-5.457031 3.785157-1.453125 8.183594.304687 9.917969 3.972656 1.433594 3.039063.710938 6.570313-1.597656 8.949219-5.480469 5.644531-11.128906 11.128906-16.6875 16.6875-5.230469 5.230469-10.371094 10.574219-15.703125 15.703125-1.5 1.445313-3.449219 2.296875-5.550781 2.296875zm0 0" fill="#ff491f"/><path d="m331.699219 347.035156c-3.140625 0-6.035157-1.953125-7.242188-4.847656-1.335937-3.207031-.328125-7.050781 2.417969-9.1875 5.472656-4.253906 13.582031.457031 12.585938 7.339844-.550782 3.804687-3.929688 6.695312-7.761719 6.695312zm0 0" fill="#ff491f"/><path d="m372.507812 387.84375c-6.902343 0-10.441406-8.707031-5.433593-13.5 2.382812-2.285156 6.046875-2.839844 9-1.339844 2.949219 1.496094 4.707031 4.863282 4.203125 8.140625-.585938 3.796875-3.917969 6.699219-7.769532 6.699219zm0 0" fill="#ff491f"/><g fill="#3c3f4d"><path d="m80.570312 157.636719h-33.484374c-4.332032 0-7.847657-3.511719-7.847657-7.847657 0-4.332031 3.515625-7.847656 7.847657-7.847656h33.484374c4.335938 0 7.847657 3.515625 7.847657 7.847656 0 4.335938-3.511719 7.847657-7.847657 7.847657zm0 0"/><path d="m223.925781 157.636719h-108.824219c-4.335937 0-7.847656-3.511719-7.847656-7.847657 0-4.332031 3.511719-7.847656 7.847656-7.847656h108.824219c4.332031 0 7.847657 3.515625 7.847657 7.847656 0 4.335938-3.515626 7.847657-7.847657 7.847657zm0 0"/><path d="m80.570312 194.261719h-33.484374c-4.332032 0-7.847657-3.511719-7.847657-7.847657 0-4.335937 3.515625-7.847656 7.847657-7.847656h33.484374c4.335938 0 7.847657 3.511719 7.847657 7.847656 0 4.335938-3.511719 7.847657-7.847657 7.847657zm0 0"/><path d="m223.925781 194.261719h-108.824219c-4.335937 0-7.847656-3.511719-7.847656-7.847657 0-4.335937 3.511719-7.847656 7.847656-7.847656h108.824219c4.332031 0 7.847657 3.511719 7.847657 7.847656 0 4.335938-3.515626 7.847657-7.847657 7.847657zm0 0"/></g></svg>