<svg height="492pt" viewBox="0 0 492 492.97507" width="492pt" xmlns="http://www.w3.org/2000/svg"><path d="m14.976562 62.488281v256c.023438 8.824219 7.171876 15.972657 16 16h288c8.824219-.027343 15.972657-7.175781 16-16v-256zm0 0" fill="#00ccb3"/><path d="m478.976562 206.488281v256c-.027343 8.824219-7.175781 15.972657-16 16h-288c-8.828124-.027343-15.976562-7.175781-16-16v-256zm0 0" fill="#5aaae7"/><path d="m462.976562 158.488281h-288c-8.828124.027344-15.976562 7.175781-16 16v32h320v-32c-.027343-8.824219-7.175781-15.972656-16-16zm0 0" fill="#ff6243"/><path d="m388.175781 362.25c-1.476562 5.304688-3.597656 10.410156-6.320312 15.199219l10.640625 15.917969-22.640625 22.640624-15.921875-10.640624c-4.785156 2.726562-9.890625 4.847656-15.199219 6.320312l-3.757813 18.800781h-32l-3.761718-18.800781c-5.308594-1.472656-10.414063-3.59375-15.199219-6.320312l-15.921875 10.640624-22.640625-22.640624 10.640625-15.917969c-2.722656-4.789063-4.84375-9.894531-6.320312-15.199219l-18.796876-3.761719v-32l18.796876-3.757812c1.476562-5.308594 3.597656-10.414063 6.320312-15.203125l-10.640625-15.917969 22.640625-22.640625 15.921875 10.640625c4.785156-2.722656 9.890625-4.847656 15.199219-6.320313l3.761718-18.800781h32l3.757813 18.800781c5.308594 1.472657 10.414063 3.597657 15.199219 6.320313l15.921875-10.640625 22.640625 22.640625-10.640625 15.917969c2.722656 4.789062 4.84375 9.894531 6.320312 15.203125l18.800781 3.757812v32zm0 0" fill="#ff9811"/><path d="m334.976562 305.769531c-5.058593-2.160156-10.503906-3.277343-16-3.28125-19.011718-.003906-35.398437 13.375-39.203124 32-.550782 2.628907-.816407 5.3125-.796876 8 .027344 19.96875 14.78125 36.859375 34.566407 39.570313 19.785156 2.710937 38.539062-9.585938 43.941406-28.8125 5.402344-19.226563-4.207031-39.488282-22.507813-47.476563zm0 0" fill="#ffd422"/><path d="m334.976562 62.488281h-320v-32c.023438-8.824219 7.171876-15.972656 16-16h288c8.824219.027344 15.972657 7.175781 16 16zm0 0" fill="#ff6243"/><path d="m38.976562 30.488281h16v16h-16zm0 0" fill="#cd2a00"/><path d="m70.976562 30.488281h16v16h-16zm0 0" fill="#cd2a00"/><path d="m102.976562 30.488281h16v16h-16zm0 0" fill="#cd2a00"/><path d="m150.976562 110.488281h16v16h-16zm0 0" fill="#009986"/><path d="m182.976562 110.488281h16v16h-16zm0 0" fill="#009986"/><path d="m214.976562 110.488281h16v16h-16zm0 0" fill="#009986"/><path d="m118.976562 110.488281h16v16h-16zm0 0" fill="#009986"/><path d="m182.976562 174.488281h16v16h-16zm0 0" fill="#cd2a00"/><path d="m214.976562 174.488281h16v16h-16zm0 0" fill="#cd2a00"/><path d="m246.976562 174.488281h16v16h-16zm0 0" fill="#cd2a00"/><g fill="#ff9811"><path d="m131.238281 465.878906c-44.214843-23.304687-80.351562-59.4375-103.65625-103.65625l14.152344-7.46875c21.796875 41.371094 55.605469 75.179688 96.976563 96.984375zm0 0"/><path d="m452.214844 138.222656c-21.796875-41.371094-55.605469-75.179687-96.976563-96.980468l7.472657-14.144532c44.214843 23.304688 80.351562 59.4375 103.65625 103.65625zm0 0"/><path d="m.488281 379.558594 13.855469-7.996094 8 13.855469-13.859375 8zm0 0"/><path d="m27.347656 420.339844 12.257813-10.285156 10.28125 12.261718-12.257813 10.28125zm0 0"/><path d="m60.867188 455.839844 10.28125-12.257813 12.257812 10.28125-10.28125 12.257813zm0 0"/><path d="m100.050781 484.976562 8-13.855468 13.855469 7.996094-8 13.859374zm0 0"/><path d="m471.601562 107.554688 13.859376-8 7.996093 13.855468-13.855469 8zm0 0"/><path d="m444.066406 70.664062 12.257813-10.28125 10.285156 12.257813-12.261719 10.28125zm0 0"/><path d="m410.546875 39.109375 10.28125-12.257813 12.257813 10.28125-10.28125 12.261719zm0 0"/><path d="m372.046875 13.855469 8-13.855469 13.855469 8-7.996094 13.855469zm0 0"/></g><path d="m54.976562 158.488281h64v16h-64zm0 0" fill="#00b39d"/><path d="m54.976562 190.488281h64v16h-64zm0 0" fill="#00b39d"/><path d="m54.976562 222.488281h64v16h-64zm0 0" fill="#00b39d"/><path d="m54.976562 254.488281h64v16h-64zm0 0" fill="#00b39d"/><path d="m54.976562 286.488281h64v16h-64zm0 0" fill="#00b39d"/></svg>